<?xml version="1.0" encoding="UTF-8" standalone="no"?>
<svg
   xmlns:dc="http://purl.org/dc/elements/1.1/"
   xmlns:cc="http://creativecommons.org/ns#"
   xmlns:rdf="http://www.w3.org/1999/02/22-rdf-syntax-ns#"
   xmlns:svg="http://www.w3.org/2000/svg"
   xmlns="http://www.w3.org/2000/svg"
   xmlns:sodipodi="http://sodipodi.sourceforge.net/DTD/sodipodi-0.dtd"
   xmlns:inkscape="http://www.inkscape.org/namespaces/inkscape"
   version="1.1"
   id="svg2"
   xml:space="preserve"
   width="55.826668"
   height="62.746666"
   viewBox="0 0 55.826668 62.746666"
   sodipodi:docname="ring.eps"><metadata
     id="metadata8"><rdf:RDF><cc:Work
         rdf:about=""><dc:format>image/svg+xml</dc:format><dc:type
           rdf:resource="http://purl.org/dc/dcmitype/StillImage" /></cc:Work></rdf:RDF></metadata><defs
     id="defs6" /><sodipodi:namedview
     pagecolor="#ffffff"
     bordercolor="#666666"
     borderopacity="1"
     objecttolerance="10"
     gridtolerance="10"
     guidetolerance="10"
     inkscape:pageopacity="0"
     inkscape:pageshadow="2"
     inkscape:window-width="640"
     inkscape:window-height="480"
     id="namedview4" /><g
     id="g10"
     inkscape:groupmode="layer"
     inkscape:label="ink_ext_XXXXXX"
     transform="matrix(1.3333333,0,0,-1.3333333,0,62.746667)"><g
       id="g12"
       transform="scale(0.1)"><path
         d="m 210.172,1.01172 c 51.269,6.10937 69.117,11.02738 79.457,21.91798 3.293,3.4609 6.449,6.3086 7.012,6.3086 3.859,0 28.738,19.5312 41.73,32.75 25.02,25.4922 38.391,45.7817 50.801,77.1207 9.508,24 12.25,31.61 12.25,33.969 0,1.352 2.418,7.742 5.398,14.25 4.508,9.883 5.821,17.094 8.032,44.352 1.457,17.91 3.109,35.672 3.66,39.468 0.597,4.071 -0.231,9.352 -2.032,12.821 -2.531,4.883 -3.582,5.472 -6.101,3.41 -4.141,-3.367 -6.258,-0.359 -3.18,4.531 1.961,3.102 2.039,6.102 0.36,12.61 -4.469,17.289 -6.379,21.628 -10,22.781 -2.149,0.687 -4.309,3.668 -4.86,6.719 -1.5,8.339 -19.551,50.121 -22,50.941 -1.23,0.41 -6.14,6.84 -10.949,14.367 -8.199,12.82 -24.309,28.692 -29.129,28.692 -1.09,0 -3.172,1.429 -4.48,3.05 -1.289,1.621 -4.071,3.051 -5.903,3.051 -5.488,0 -16.238,6 -18.578,10.379 -2.941,5.48 -16.621,12.012 -25.16,12.012 -3.871,0 -7.68,0.929 -8.34,2.027 -0.691,1.141 -3.461,2.031 -6.308,2.031 -2.852,0 -6.793,0.918 -8.954,2.078 -5.5,2.954 -35,7.454 -51.679,7.883 -14.61,0.379 -35.399,-3.57 -53.11,-10.082 -5.57,-2.051 -16.371,-5.258 -23.898,-7.097 C 112.41,450.469 109.309,448.68 102.23,440.641 97.7617,435.551 91.4883,429.738 88.5,427.922 85.4805,426.078 72.9609,414.391 60.7109,401.98 41.2305,382.238 33.9688,372.578 28.3086,358.84 c -0.6797,-1.66 -3.5703,-7.121 -6.3398,-12 -2.7696,-4.879 -5.0899,-10.942 -5.0899,-13.328 0,-2.352 -1.8789,-8.032 -4.0703,-12.313 -2.1875,-4.269 -4.07032,-9.808 -4.07032,-12 0,-2.269 -0.84765,-6.82 -1.92969,-10.269 C 5.75,295.512 3.55078,281.219 1.92969,267.18 -0.609375,245.23 -0.628906,237.379 1.78906,211.129 c 3.03125,-32.957 7.6211,-61.707 11.94144,-74.867 1.539,-4.684 3.2812,-10.711 3.9687,-13.742 0.6914,-3.051 3.4219,-8.032 6.3008,-11.489 2.8906,-3.461 6.1914,-8.133 7.6406,-10.781 C 55.2305,56.9102 90.9805,25.1914 128.789,14.0508 l 5.082,-1.5 -4.473,4.2695 c -6.457,6.1406 -5.898,7.6602 2.442,6.7188 4.879,-0.5586 7.121,-1.8282 7.121,-4.0703 0,-2.4375 0.609,-2.6407 2.437,-0.8086 1.903,1.8984 1.731,3.25 -0.769,6.1015 -5.008,5.6992 -6.207,11.7578 -2.891,14.5391 1.633,1.3594 4,1.9687 5.082,1.3086 2.649,-1.6211 6.77,-17.0391 5.219,-19.5078 -0.609,-0.9727 0.383,-4.1719 2.109,-6.8203 3.063,-4.67974 3.032,-5.06255 -0.41,-6.30083 -3.027,-1.10156 -2.437,-1.85156 3.461,-4.35156 7.813,-3.320316 39.071,-4.75782 56.973,-2.61719 z M 189.02,14.3789 c -1.872,4.75 0.402,6.7227 7.718,6.7227 7.731,0 15.434,-4.8516 12.41,-7.8203 -2.269,-2.2422 -12.609,-3.95317 -16.476,-2.7227 -1.301,0.4102 -3,2.2031 -3.652,3.8203 z m -28.622,5.9024 c -5.449,14.25 -1.359,15.9375 10.301,4.2773 5.09,-5.0898 8.75,-10.3398 8.039,-11.5 -0.718,-1.1602 -4.379,-2.1289 -8.039,-2.1289 -6.129,0 -7.027,0.8086 -10.301,9.3516 z m 61.161,-2.4415 c -0.848,3.4219 -3.047,5.2891 -7.321,6.2383 -7.726,1.7227 -12.879,9.25 -11.449,16.75 0.59,3.1602 1.621,13.4336 2.289,23 0.684,9.5625 2.094,22.293 3.16,28.4805 1.063,6.1602 2.852,30.6214 3.973,54.4294 1.117,23.801 2.988,49.864 4.168,57.981 1.18,8.14 1.949,19.769 1.73,25.941 -0.23,6.16 0.282,47.82 1.11,92.578 0.851,44.961 0.711,88.992 -0.297,98.371 -1.75,16.282 -1.641,17.121 2.75,20.039 2.437,1.633 6.469,2.442 8.637,1.75 4.679,-1.507 11.089,-10.707 8.55,-12.269 -1.98,-1.219 -1.429,-35.051 0.61,-37.09 2.711,-2.711 3.793,1.43 3.601,13.84 -0.218,14.851 3.59,22.812 10.442,21.801 3.047,-0.461 4.789,-2.68 6.078,-7.758 2.332,-9.203 3.488,-202.852 1.398,-235 -0.867,-13.41 -2.179,-44.461 -2.898,-68.871 -0.731,-24.4221 -2.11,-46.4729 -3.059,-48.9299 -0.961,-2.4922 -2.359,-9.6719 -3.152,-16.1797 -1.109,-9.1601 -2.488,-12.3828 -6.309,-14.8516 -2.64,-1.7109 -6.281,-2.6289 -7.929,-2.0117 -3.461,1.3008 -4.262,9.4532 -1.219,12.4922 1.117,1.1211 2.617,22.9883 3.348,48.8281 0.73,25.8396 1.781,47.5706 2.339,48.5236 0.571,0.957 1.391,9.156 1.84,18.308 0.442,9.149 1.801,31.641 3.012,50.161 2.019,30.629 1.57,87.078 -1.141,145.468 -1.191,25.641 -2.191,31.539 -5.332,31.539 -1.59,0 -1.816,-8.136 -0.789,-28.078 2.582,-50.05 3.141,-138.468 1,-157.679 -6.469,-58.192 -7.949,-78.051 -9.008,-121.2621 -0.671,-27.2695 -2.05,-48.6875 -3.211,-49.8476 -2.96,-2.961 -2.492,-7.5313 1.18,-11.6016 3.961,-4.3906 2.281,-9.9688 -3.012,-9.9688 -2.41,0 -4.32,1.8282 -5.089,4.8789 z m 22.179,4.3711 c -5.289,3.4688 -6.968,11.0977 -2.437,11.0977 1.449,0 6.508,-1.8398 11.187,-4.0703 6.102,-2.9102 8.551,-5.3164 8.551,-8.4492 0,-3.7891 -0.82,-4.211 -6.109,-3.1485 -3.461,0.6875 -8.309,2.668 -11.192,4.5703 z m 21.364,7.5586 c -6.512,2.0196 -8.133,3.5 -8.133,7.4024 0,4.5586 0.511,4.7773 7.633,3.3594 4.269,-0.8594 10.578,-1.7813 14.339,-2.1016 9.36,-0.7891 10.457,-2.5391 4.481,-7.1211 -6.133,-4.668 -7.742,-4.8086 -18.32,-1.5391 z M 95.4219,35.5 c -6.1133,4.8398 -6.9531,10.0117 -1.6328,10.0117 4.2695,0 15.3519,-10.9023 13.2309,-13.0234 -2.34,-2.3281 -6.11,-1.3477 -11.5981,3.0117 z m 84.4301,-0.8594 -6.512,1.3086 0.308,15.461 c 0.172,8.5507 1.122,19.5703 2.141,24.6211 1,5.039 2.152,38.4567 2.539,74.2697 0.391,35.808 1.031,71.058 1.422,78.328 0.398,7.32 -0.102,13.223 -1.121,13.223 -2.668,0 -4.848,-12.411 -3.77,-21.563 0.5,-4.277 -0.039,-11.5 -1.168,-15.668 -1.929,-7.141 -2.812,-66.531 -1.242,-84.84 0.379,-4.511 -0.168,-14.043 -1.238,-21.3708 -1.07,-7.2891 -1.852,-22.9883 -1.75,-34.9883 0.219,-24.8203 -0.012,-25.1133 -14.43,-17.8438 l -8.34,4.211 1.219,37.0312 c 0.668,20.3397 0.988,46.6487 0.711,58.3907 -1,41.711 0.141,96.687 2.149,103.769 1.109,3.911 2.992,10.782 4.16,15.25 1.179,4.489 2.73,41.918 3.461,83.418 0.73,41.512 2.187,76.883 3.25,78.852 1.078,1.98 4.679,5 8.14,6.809 l 6.207,3.261 -5.797,3.559 c -3.261,2 -8.3,4.18 -11.5,4.973 -6.921,1.707 -6.3,5.519 1.231,7.507 3.047,0.813 5.039,0.731 4.469,-0.168 -0.571,-0.929 1.629,-2.562 5.089,-3.769 3.661,-1.281 7.008,-4.41 8.36,-7.832 2.84,-7.192 3.332,-82.809 0.941,-146.488 -1.269,-33.981 -1.14,-47.411 0.457,-47.411 1.25,0 2.723,3.868 3.321,8.75 1.281,10.481 3.671,98.879 3.98,147.918 l 0.231,35.602 6.109,0.711 c 3.449,0.406 6.723,1.726 7.519,3.058 1.032,1.692 2.454,1.7 5.09,0.051 8.66,-5.39 8.742,-6.672 7.492,-119.59 -0.652,-59.211 -1.871,-109.55 -2.71,-111.902 -0.848,-2.379 -1.7,-10.578 -1.93,-18.519 -0.231,-7.93 -0.77,-18.739 -1.219,-24.411 -0.449,-5.597 -1.801,-24.82 -3,-42.73 -2.68,-39.879 -5.812,-77.0977 -7.223,-85.8595 -1.16,-7.2109 -3.82,-8.0507 -17.046,-5.3789 z m -61.032,2.5313 c -3.672,3.6562 -7.59,18.0469 -5.5,20.1367 2.039,2.043 7.84,-4.668 11.61,-13.418 2.101,-4.8906 3.859,-9.3203 3.859,-9.7695 0,-2.2617 -6.719,-0.1992 -9.969,3.0508 z m 158.489,8.1367 c 0,3.6133 6.722,6.3125 15.671,6.3125 4.86,0 2.032,-6.8711 -3.46,-8.4023 -9.161,-2.5469 -12.211,-2.0274 -12.211,2.0898 z M 259,55.2813 c 0,6.9179 1.422,12.0898 4.629,16.8906 5.723,8.539 17.082,15.5273 20.191,12.4062 3.211,-3.207 0.41,-8.5468 -4.468,-8.5468 -2.442,0 -4.801,-1.5196 -5.5,-3.5625 -0.692,-2.0079 -2.852,-5.8985 -4.981,-8.9493 -2.133,-3.0507 -3.769,-7.5507 -3.769,-10.3789 0,-2.6406 -0.661,-5.6523 -1.422,-6.4101 C 260.441,43.5 259,46.1211 259,55.2813 Z M 93.1289,57.3086 c 1.6602,11.8125 3.9727,14.6016 8.3911,10.1797 2.699,-2.6992 2.851,-4.4766 0.89,-10.3789 -2.18,-6.5078 -4.4295,-8.9102 -8.8202,-9.3711 -0.9882,-0.0977 -1.1992,4.2812 -0.4609,9.5703 z M 132.859,56.5 c 0,3.2617 3.7,6.2695 5.493,4.4805 1.66,-1.6602 -1.024,-7.3321 -3.461,-7.3321 -1.161,0 -2.032,1.2227 -2.032,2.8516 z m 177.012,2.2383 c 0,1.6328 1.418,3.0508 3.051,3.0508 3.859,0 3.859,2.8828 0,6.1015 -4.082,3.3985 -0.41,8.1407 6.308,8.1407 6.301,0 8.411,-5.1407 4.09,-9.9727 -1.82,-2.0273 -2.742,-4.1992 -2.058,-4.8789 2.238,-2.2305 -1.633,-5.4883 -6.512,-5.4883 -3.051,0 -4.879,1.1367 -4.879,3.0469 z M 293.59,57.7188 c 0,1.1796 1.32,2.0429 3.148,2.0429 1.832,0 2.653,-0.8633 1.942,-2.0429 -0.739,-1.2188 -2,-2.0274 -3.16,-2.0274 -1.161,0 -1.93,0.8086 -1.93,2.0274 z m -17.77,3.6601 c -0.941,2.8203 6.782,7.0508 11.258,6.1797 3.012,-0.5898 2.852,-1.2891 -1.219,-5.3594 -4.679,-4.6797 -8.64,-5 -10.039,-0.8203 z m -194.0309,0.543 c -3.1993,1.7383 -3.7578,3.9375 -3.2188,12.6875 0.9805,15.9492 8.6797,14.6523 9.6485,-1.6289 0.8398,-14.2422 0.5,-14.8399 -6.4297,-11.0586 z m 32.7499,5.1562 c 0,3.711 -6.508,6.9219 -14.027,6.9219 -7.1331,0 -7.8401,1.4609 -2.6526,5.3906 3.6206,2.7383 14.2426,3.5508 19.5316,1.4883 2.371,-0.918 2.621,-2.3008 1.121,-6.168 -1.731,-4.4804 -1.551,-4.7812 1.828,-2.9492 2.09,1.1289 7.531,1.8985 12.211,1.7266 6.308,-0.2266 8.437,-1.1289 8.437,-3.5586 0,-4.8711 -0.609,-5.1016 -14.027,-5.4102 -9.359,-0.2187 -12.422,0.4102 -12.422,2.5586 z m 172.949,8.9532 c 0,2.4101 2.641,4.0195 10.172,6.1796 8.141,2.3282 9.309,-0.7617 2.641,-6.9726 -4.27,-3.9688 -6.301,-4.6485 -9.153,-3.0664 -2.039,1.1289 -3.66,2.8476 -3.66,3.8594 z M 58.8008,73.1797 c -0.7695,2.0391 -0.3125,2.9492 1.2187,2.4414 3.0508,-1.0313 4.7188,-5.6914 2.0313,-5.6914 -1.1406,0 -2.5703,1.4219 -3.25,3.25 z M 335.43,73.8008 c -0.66,1.039 0.07,2.8398 1.699,4.1797 3.09,2.5586 6.359,-0.5196 4.23,-3.9805 -1.5,-2.4414 -4.468,-2.5391 -5.929,-0.1992 z M 123.289,87.9219 c -8.949,7.9765 -27.0585,33.7891 -27.0585,38.5661 0,1.633 -1.2188,2.371 -2.8516,1.731 -1.9492,-0.77 -2.5586,0 -1.9297,2.441 0.5117,1.969 -1.4804,10.68 -4.4179,19.43 -7.9415,23.629 -11.1797,43.539 -12.4532,76.5 -1.0078,26.25 -0.6289,31.531 3.4414,47.82 2.5508,10.168 4.5821,22.512 4.5821,27.77 0,6.711 0.7382,9.199 2.539,8.55 1.5703,-0.57 3.8008,2.641 5.8008,8.34 1.7891,5.078 4.7188,13.43 6.5078,18.508 1.7891,5.094 4.9998,10.363 7.1208,11.703 2.078,1.309 3.871,4.379 3.871,6.61 0,2.371 2.637,6.73 6.098,10.078 3.461,3.34 6.109,7.133 6.109,8.742 0,2.961 11.801,20.801 15.262,23.078 1.078,0.711 4.371,3.391 7.02,5.711 4.269,3.75 5.39,3.961 7.832,1.43 2.297,-2.379 2.828,-12.508 2.769,-52.602 -0.082,-49.437 -3.39,-92.019 -8.75,-112.508 -2.621,-10.031 -3.57,-56.968 -1.992,-98.679 0.68,-17.903 -1.027,-52.5121 -2.879,-58.391 -1.461,-4.6289 -7.871,-2.6289 -16.621,5.1719 z M 62.7813,83.3594 c -3.75,3.832 -3.7696,4.8789 -0.2696,18.1096 2.8985,10.98 5.0078,12.152 8.7969,4.883 3.0312,-5.813 3.2617,-14.0434 0.5898,-20.9614 -2.3476,-6.1015 -4.6289,-6.6093 -9.1171,-2.0312 z m 273.5387,1.832 c 0,3.25 9.379,6.4883 11.801,4.0703 1.688,-1.6914 -5.293,-7.1211 -9.16,-7.1211 -1.41,0 -2.641,1.418 -2.641,3.0508 z m -13.941,-0.9219 c 0.41,1.2188 1.543,2.1407 2.641,2.1407 1.109,0 2.289,-0.9219 2.75,-2.1407 0.429,-1.1289 -0.809,-2.1289 -2.641,-2.1289 -1.828,0 -3.129,1 -2.75,2.1289 z M 90.1289,94.3398 c 0,1.1915 1.0195,2.1407 2.4414,2.2696 9.5587,0.8906 17.2387,-3.75 15.1917,-9.1797 -0.992,-2.6406 -2.274,-2.5195 -9.3909,0.9101 -4.4805,2.1602 -8.2422,4.8985 -8.2422,6 z M 263.898,126.289 c 0.782,21.973 2,40.84 2.731,42.012 0.73,1.179 1.551,52.898 1.832,115.16 0.277,62.258 0.551,113.758 0.598,114.648 0.191,3.5 12.32,-7.32 12.32,-10.98 0,-2.059 2.34,-5.399 4.992,-7.129 2.641,-1.719 5.27,-5.301 5.59,-7.629 0.367,-2.641 2.219,-4.609 4.68,-4.98 3.347,-0.5 4.109,-2.243 4.281,-9.77 0.187,-8.34 3.879,-23.441 6.918,-28.281 1.519,-2.399 7.488,-21.969 15.851,-51.879 C 330.25,254 330.52,246.328 326.219,205.23 323.18,176.141 317.328,157.262 304.27,134.43 293.57,115.711 285.969,105.02 275.512,93.9414 262.66,80.3281 262.309,81.3203 263.898,126.289 Z m 39.864,-33.9804 c 0,4.4727 10.578,12.2114 16.687,12.2114 4.789,0 4.539,-2.442 -0.91,-8.5512 -7.25,-8.1407 -15.777,-10.1094 -15.777,-3.6602 z m -13.262,0 c -2.238,3.6328 1.051,10.1714 5.121,10.1714 5.5,0 6.469,-2.6402 2.84,-7.73 -3.332,-4.6797 -6.063,-5.5117 -7.961,-2.4414 z m 43.781,4.8828 c 0,4.6796 8.02,13.3986 11.188,12.1676 3.051,-1.168 4.293,-10.9879 1.722,-13.5895 -2.55,-2.5703 -12.91,-1.4179 -12.91,1.4219 z M 49.1992,103.301 c -1.6289,3.597 -1.6211,6.609 0.0313,11.488 1.2383,3.66 2.2383,9.199 2.2383,12.41 0,4.281 1.0195,5.801 3.871,5.801 2.0313,0 5.0704,-1.488 6.4102,-3.148 2.1016,-2.614 1.9688,-4.383 -0.8203,-10.282 -1.8203,-3.859 -3.3594,-9.718 -3.3594,-12.808 0,-9.5706 -4.7187,-11.5237 -8.3711,-3.461 z M 355.73,103.09 c -0.378,1.332 -1.808,6.211 -3.14,10.691 -2.11,7.117 -1.93,9.289 1.281,15.969 4.219,8.75 7.527,9.84 8.59,2.852 0.398,-2.653 1.508,-5.524 2.539,-6.622 1.02,-1.07 1.84,-5.39 1.84,-9.66 0,-10.172 -8.961,-20.8395 -11.11,-13.23 z m -271.3003,3.43 c -1.9688,1.07 -4.9805,2.3 -7.0195,2.878 -2.0313,0.582 -3.5586,2.5 -3.5586,4.481 0,2.801 1.4297,3.211 7.5273,2.18 6.9219,-1.18 12.8203,-5.739 12.8203,-9.911 0,-2.238 -5.289,-2.039 -9.7695,0.372 z m 229.5113,5.32 c 0,4.64 10.981,15.058 15.868,15.058 2.23,0 5.531,0.571 7.32,1.274 5.449,2.109 3.73,-6.363 -2.688,-13.281 -4.39,-4.731 -7.691,-6.301 -13.179,-6.301 -5.293,0 -7.321,0.898 -7.321,3.25 z m -11.089,0.922 c 0.668,1.16 1.886,1.476 3.046,0.808 1.161,-0.672 1.481,-1.89 0.813,-3.05 -0.672,-1.161 -1.891,-1.489 -3.051,-0.809 -1.16,0.668 -1.48,1.891 -0.808,3.051 z m -269.2817,4.367 c -3.6211,3.621 -2.8984,11.601 1.5586,17.301 3.082,3.941 4.1328,8.34 4.1328,17.289 0,10.172 0.5274,11.902 3.4571,11.34 4.8125,-0.93 7.9414,-11.34 4.871,-16.219 -1.3593,-2.18 -1.8906,-6.719 -1.2109,-10.379 0.9219,-4.883 0.1797,-7.731 -2.9492,-11.391 -2.25,-2.648 -4.168,-6.101 -4.168,-7.531 0,-3.461 -2.4609,-3.629 -5.6914,-0.41 z m 35.8086,13.18 c -7.3281,6.992 -7.5,11.261 -0.4101,10.421 9.1523,-1.089 16.9218,-15.871 8.3398,-15.871 -1.1992,0 -4.8789,2.532 -7.9297,5.45 z m 299.4921,4.73 c 0,2.012 -1.199,6.512 -2.672,9.973 -2.918,6.91 -1.75,24.699 1.653,24.976 2.949,0.25 11.449,-26.808 9.957,-31.699 -2.848,-9.359 -8.938,-11.57 -8.938,-3.25 z m -43.742,1.832 c 0,6.117 8.949,12.91 15.871,12.039 4.789,-0.609 4.949,-1.051 2.73,-7.769 -3.421,-10.379 -18.601,-13.86 -18.601,-4.27 z m -300.9102,3.457 c -0.668,1.774 -1.2305,5.293 -1.2305,7.731 0,2.492 -1.8985,10.171 -4.2774,17.293 l -4.2695,12.82 6.4102,6.609 c 3.8086,3.938 6.9101,9.668 7.6367,14.141 1.6406,10.09 -2.5781,9.769 -5.3985,-0.402 -3.3789,-12.211 -5.0781,-13.668 -8.9687,-7.731 -4.76172,7.262 -4.29297,14.031 1.5508,22.582 5.8476,8.539 10.3789,21.07 8.3281,23.039 -0.7617,0.731 -2.2305,-0.051 -3.1484,-1.68 -0.9532,-1.679 -3.1016,-4.878 -4.7813,-7.121 -2.8984,-3.859 -3.1211,-3.879 -4.4101,-0.398 -2.26957,6.109 0.75,12.301 9.5,19.519 14.0117,11.559 15.0781,10.59 15.3906,-14.031 0.1484,-11.801 1.2578,-26.738 2.4805,-33.371 3.289,-17.898 2.8671,-24.277 -1.8008,-27.18 -3.4922,-2.16 -4.0703,-4.66 -4.0703,-17.476 0,-8.141 -0.6485,-15.602 -1.4219,-16.383 -2.2969,-2.289 -6.2774,-1.219 -7.5195,2.039 z m 37.8515,20.141 c 0.3203,2.242 2.1485,4.359 4.0508,4.722 4.4805,0.829 7.5195,-11.511 3.457,-14.062 -3.5976,-2.25 -8.3398,3.641 -7.5078,9.34 z m 271.1487,-2.848 c -2.41,3.891 4.519,11.027 13.269,13.68 14.242,4.308 16.051,-3.262 2.852,-11.949 -6.512,-4.282 -14.031,-5.09 -16.121,-1.731 z m 45.82,8.34 c 0,1.16 -2.211,4.68 -5.109,8.141 -4.95,5.91 -6.239,12.207 -3.801,18.519 1.062,2.731 1.59,2.707 5.051,-0.211 2.031,-1.711 3.859,-4.41 3.859,-5.691 0,-1.399 1.223,-3.457 2.852,-4.809 4.879,-4.039 8.058,-15.941 5.179,-19.41 -1.859,-2.23 -3.269,-2.449 -5.281,-0.809 -1.418,1.161 -2.75,3.219 -2.75,4.27 z M 57.3008,178.578 c -2.8906,6.313 -1.0391,11.391 4.1406,11.391 2.707,0 4.2578,-1.828 5.1875,-6.098 0.75,-3.461 0.7813,-6.992 0.0703,-8.141 -2.2773,-3.691 -7.0703,-2.242 -9.3984,2.848 z m 281.0512,2.641 c 0,11.601 1.757,14.062 11.796,16.441 5.293,1.262 10.25,1.602 11.09,0.762 0.832,-0.844 0.942,-4.582 0.242,-8.25 -1.41,-7.313 -10.511,-14.442 -18.449,-14.442 -3.812,0 -4.679,1.02 -4.679,5.489 z m 43.82,13.84 c -7.094,11.191 -8.352,15.992 -5.871,22.382 2.179,5.637 6.039,3.457 12.578,-7.121 6.293,-10.179 7.711,-16.558 5.16,-23.199 -2.078,-5.402 -4.391,-3.859 -11.867,7.938 z M 45.3711,186.922 c 0,1.629 1.418,3.047 3.0508,3.047 1.6289,0 3.0469,-1.418 3.0469,-3.047 0,-1.633 -1.418,-3.051 -3.0469,-3.051 -1.6328,0 -3.0508,1.418 -3.0508,3.051 z m 4.0703,18.656 c -5.7031,4.832 -6.0117,5.652 -3.2617,8.402 6.1797,6.18 21.9219,-2.652 18.8711,-10.582 -1.8906,-4.918 -8.2891,-4.027 -15.6094,2.18 z m 292.9806,2.192 c 0,4.558 1.629,6.46 8.75,10.21 11.187,5.899 13.629,5.7 13.629,-1.152 0,-9.469 -5.492,-14.187 -16.891,-14.5 -4.789,-0.129 -5.488,0.563 -5.488,5.442 z m 65.109,-1.52 c 0,1.219 0.36,2.031 0.91,2.031 0.547,0 1.411,-0.812 2.137,-2.031 0.703,-1.16 0.301,-2.039 -0.918,-2.039 -1.219,0 -2.129,0.879 -2.129,2.039 z m -20.812,16.68 c -10.207,12.011 -13.27,21.058 -9.059,26.859 2.77,3.813 2.91,3.801 10.231,-0.711 4.07,-2.508 8.32,-6.226 9.398,-8.238 3.391,-6.309 2.652,-28.488 -0.949,-28.488 -0.34,0 -4.59,4.679 -9.621,10.578 z m -43.688,5.191 c 0.68,4.27 3.008,8.84 5.289,10.379 2.192,1.48 6.508,5 9.36,7.629 6.648,6.152 9.859,4.269 8.379,-4.891 -1.25,-7.726 -13.887,-20.547 -20.379,-20.668 -3.301,-0.07 -3.692,1.039 -2.649,7.551 z M 53.7109,226.34 c -7.1211,6.66 -7.6328,8.75 -3.0507,12.558 2.5507,2.141 4.2382,1.332 10.3593,-4.976 11.6524,-11.992 4.9024,-18.981 -7.3086,-7.582 z M 371.52,227 c 0.64,1.672 1.089,1.219 1.218,-1.219 0.102,-2.031 -0.379,-3.293 -1.019,-2.64 -0.66,0.648 -0.75,2.437 -0.199,3.859 z m -29.622,24.621 c 5.551,8.949 18.063,23.809 20.051,23.809 5.02,0 4.93,-6.52 -0.179,-12.621 -2.891,-3.457 -5.11,-6.809 -5.11,-7.731 0,-2.238 -12.582,-8.156 -14.648,-6.898 -0.942,0.582 -0.992,2.019 -0.114,3.441 z M 55.1289,248.73 c -2.6406,1.059 -6.3594,2.399 -8.5391,3.09 -3.6601,1.16 -3.6914,1.418 -0.5117,4.989 1.8907,2.121 3.3633,6.613 3.3633,10.269 0,9.082 3.1992,8.141 13.8789,-4.066 3.4297,-3.91 4.2695,-6.711 3.2383,-10.782 -1.4688,-5.769 -3.8984,-6.511 -11.4297,-3.5 z m -43.3281,0.25 c -2.48049,3.981 4.8789,16.149 13.0195,21.532 C 40.6914,281 41.0391,267.211 25.2188,254.719 15.0508,246.68 13.6094,246.07 11.8008,248.98 Z M 386.57,260.301 c -9.558,6.219 -13.429,13.578 -9.55,18.179 1.781,2.11 4.058,1.61 11.378,-2.511 10.582,-5.949 16.633,-15.481 12.731,-20.078 -2.801,-3.313 -2.551,-3.379 -14.559,4.41 z m -15.672,6.988 c 0,1.223 0.372,2.031 0.922,2.031 0.551,0 1.399,-0.808 2.141,-2.031 0.687,-1.168 0.301,-2.039 -0.922,-2.039 -1.219,0 -2.141,0.871 -2.141,2.039 z m -30.507,5.289 c 0,2.82 1.347,8.344 3.039,12.41 3.64,8.75 3.711,8.301 -1.621,9.102 -3.821,0.57 -4.45,1.879 -4.329,9.012 0.168,9.757 6.86,27.257 10.43,27.257 4.719,0 5.051,-9.769 0.738,-21.769 -3.937,-10.988 -3.91,-17.289 0.051,-10.781 4.571,7.519 5.801,8.57 8.781,7.492 1.86,-0.68 3.239,-3.629 3.211,-6.879 -0.043,-6.113 -10.671,-28.961 -14.613,-31.434 -3.539,-2.218 -5.687,-0.109 -5.687,5.59 z m -278.6097,2.641 c -1.4102,2.652 -3.3399,3.64 -5.5313,2.851 -2.8906,-1.05 -3.1719,-0.3 -2.0312,5.391 0.7304,3.66 1.3203,8.34 1.3203,10.48 0,5.02 2.8515,4.809 10.3828,-0.769 5.3984,-4 5.9492,-5.332 4.7773,-11.641 -2.0976,-11.39 -5.0703,-13.5 -8.9179,-6.312 z m -45.3711,4.269 c 0.7187,8.942 3.1211,11.66 12.8789,14.582 10.1797,3.032 13.8007,0.41 10.8828,-7.859 -1.9336,-5.492 -17.6719,-15.41 -22.2735,-14.039 -1.1093,0.34 -1.789,3.656 -1.4882,7.316 z M 383.52,284.75 c -10.379,5.359 -14.649,11.301 -14.649,20.379 0,4.621 0.707,5.152 5.598,4.172 3.019,-0.602 9.051,-2.571 13.121,-4.27 6.058,-2.543 7.969,-4.781 9.801,-11.5 2.328,-8.543 1.597,-14.043 -1.871,-14.043 -1.02,0 -6.301,2.321 -12,5.262 z m -64.18,25.262 c -6.211,15.258 -6.36,16.277 -2.352,16.277 3.262,0 13.051,-19.937 13.282,-27.059 0.082,-2.441 0.89,-6.332 1.769,-8.55 0.902,-2.231 1.18,-5.352 0.621,-6.91 -1.019,-2.891 -3.211,1.421 -13.32,26.242 z M 65.7695,304.93 c -3.6484,5.898 -4.1914,8.55 -2.75,13.629 2.7188,9.589 6.1211,9.152 11.1016,-1.43 3.8398,-8.129 4.0703,-9.988 1.8086,-14.238 -3.6016,-6.762 -4.8711,-6.512 -10.1602,2.039 z m -46.0781,-3.871 c 0.707,1.832 1.2578,3.972 1.2578,4.882 0,0.887 5.0899,4.27 11.1914,7.43 6.1094,3.16 11.1875,6.449 11.1875,7.219 0,2.172 -1.0195,1.969 -8.9492,-1.77 -8.5508,-4.019 -10.7773,-2.629 -8.0976,5.032 2.3476,6.718 15.6289,15.839 25.7968,17.726 6.7227,1.242 7.5313,0.953 7.5313,-2.68 0,-5.277 -7.418,-14.527 -11.8008,-14.707 -2.457,-0.101 -2.1367,-0.671 1.1211,-1.972 2.4414,-0.981 4.582,-2.778 4.582,-3.86 0,-1.109 -2.1015,-5.289 -4.582,-9.16 -3.1406,-4.879 -6.1797,-7.179 -9.668,-7.32 -2.8515,-0.117 -6.8711,-0.981 -9.1523,-1.949 -6.918,-2.969 -11.8008,-2.442 -10.418,1.129 z M 378.84,314.371 c -13.43,4.5 -19.84,14.32 -13.02,19.949 1.95,1.61 4.071,1.711 6.711,0.309 2.039,-1.07 5.699,-1.551 7.731,-1.008 3.226,0.84 4.25,-0.621 6.16,-8.75 2,-8.551 1.976,-12.82 -0.051,-12.82 -0.34,0 -3.66,1.019 -7.531,2.32 z m -48.852,11.508 c -2.918,7.531 -0.008,29.91 3.883,29.91 1.598,0 4.199,-3.348 5.91,-7.629 2.758,-6.922 2.739,-8.281 -0.211,-14.648 -1.789,-3.864 -3.129,-7.75 -2.98,-8.641 1.16,-6.883 -3.852,-6.109 -6.602,1.008 z M 75.7695,328.73 c -2.7695,4.481 -3.7812,8.68 -3.039,12.622 2.3086,12.199 9.3203,15.027 14.1484,5.687 2.4219,-4.687 2.6016,-7.519 0.8594,-13.828 C 84,319.578 81.9297,318.801 75.7695,328.73 Z m 236.5585,3.051 c 0.801,4.348 4.32,4.071 5.25,-0.402 0.352,-1.719 -0.797,-3.051 -2.629,-3.051 -2.097,0 -3.027,1.223 -2.621,3.453 z m 46.5,13.641 c -5.348,5.687 -4.406,11.387 1.902,11.387 4.481,0 16.282,-10.18 16.282,-14.039 0,-4.391 -13.391,-2.442 -18.184,2.652 z M 34.3281,342.359 c -3.4179,5.5 19.793,18.52 33.0117,18.52 4.5196,0 4.5704,-0.199 1.5899,-5.899 -3.0391,-5.808 -7.6914,-8.281 -22.5508,-11.968 -10.9805,-2.731 -10.75,-2.723 -12.0508,-0.653 z m 278.8909,20.039 c 0.172,5.911 1.453,12.102 2.851,13.84 2.219,2.75 3.051,2.692 6.508,-0.508 3.231,-2.98 3.742,-5.289 2.75,-12.41 -1.566,-11.191 -2.719,-12.898 -8.137,-12.172 -3.82,0.512 -4.242,1.692 -3.972,11.25 z M 87.5391,359.66 c -1.3477,4.07 -1.1875,6.379 0.5507,8.09 3.0508,2.98 8.1407,-3.621 8.1407,-10.531 0,-6.828 -6.1992,-5.09 -8.6914,2.441 z m -40.6485,5.801 c 1.1407,2.437 2.6211,6.09 3.1602,7.828 1.2109,3.871 27.3203,9.301 30.3086,6.313 4.3125,-4.301 -4.2696,-11.364 -19.3281,-15.922 -8.1407,-2.461 -15.0118,-4.071 -15.461,-3.621 -0.4297,0.441 0.1797,2.961 1.3203,5.402 z m 296.0704,2.949 c -4.57,4.879 -6.172,8 -4.813,9.36 2.75,2.75 15.872,-0.211 18.954,-4.282 1.437,-1.898 4.449,-3.457 6.679,-3.457 2.449,0 4.36,-1.543 4.789,-3.859 0.52,-2.852 -0.121,-3.551 -2.449,-2.652 -1.832,0.71 -3.691,0.371 -4.441,-0.809 -2.789,-4.391 -11.879,-1.633 -18.719,5.699 z m -245.0196,3.66 c -1.7617,3.871 -1.7695,6.309 -0.0195,10.168 3.0901,6.852 7.3401,6.512 10.3671,-0.808 4.641,-11.192 -5.391,-20.258 -10.3476,-9.36 z M 297.84,380 c -6.692,9.77 -7.781,15.191 -3.84,19.129 3.051,3.051 7.73,3.301 7.73,0.41 0,-1.117 1.829,-3.867 4.071,-6.109 4.519,-4.52 5.308,-12.2 1.89,-18.508 -1.101,-2.043 -2.48,-3.871 -2.91,-3.871 -0.441,0 -3.601,4.07 -6.941,8.949 z m 26.269,8.238 c -1.359,1.641 -2.109,4.582 -1.679,6.621 1.449,6.981 24.058,1.629 24.058,-5.699 0,-3.23 -1.629,-3.871 -9.968,-3.871 -6.309,0 -10.872,1.09 -12.411,2.949 z m -211.199,3.16 c -0.719,4.883 5.02,12.942 7.942,11.133 2.66,-1.652 2.238,-11.953 -0.614,-14.793 -3.386,-3.386 -6.508,-1.84 -7.328,3.66 z m -50.4881,-3.867 c -2.9024,4.699 6.1367,9.688 18.5469,10.239 10.1796,0.46 12.332,-0.059 12.9101,-3.122 1.2695,-6.687 -3.3398,-9.148 -17.1797,-9.148 -7.1211,0 -13.5898,0.922 -14.2773,2.031 z m 33.8086,6.309 c 0,2.691 4.6605,1.019 5.6915,-2.039 0.519,-1.52 -0.402,-1.981 -2.4337,-1.223 -1.8281,0.692 -3.2578,2.121 -3.2578,3.262 z m 179.7575,13.832 c -2.258,4.887 -4.976,7.937 -6.816,7.629 -1.621,-0.27 -3.281,0.347 -3.563,1.328 -0.269,1 3.871,1.922 9.161,2.031 8.339,0.18 9.992,-0.488 12.07,-4.879 3.18,-6.722 1.371,-14.242 -3.418,-14.242 -2.293,0 -5.082,3.051 -7.434,8.133 z M 128.18,402.789 c -1.961,1.961 0.808,6.922 3.859,6.922 1.633,0 2.852,-1.133 2.852,-2.652 0,-4.469 -3.981,-7 -6.711,-4.27 z m -47.3011,1.02 c -2.0976,3.39 7.8203,12.171 15.5625,13.761 9.3476,1.93 18.0976,0.692 18.0976,-2.57 0,-4.039 -9.969,-9.98 -19.3281,-11.52 -12.1992,-2.011 -12.8828,-1.992 -14.332,0.329 z m 228.9921,2.382 c -5.5,2.778 -8.301,11.7 -3.672,11.649 7.129,-0.078 20.973,-5.82 23.539,-9.762 2.813,-4.316 2.614,-4.469 -5.937,-4.469 -4.879,0 -11.129,1.153 -13.93,2.582 z m -170.281,9.008 c -0.809,2.121 0.281,4.5 3.129,6.821 2.441,1.992 4.383,4.371 4.383,5.39 0,2.199 -6.114,5.52 -15.262,8.309 -4.07,1.25 -6.11,3.152 -6.11,5.73 0,3.09 1.43,3.821 7.129,3.66 3.86,-0.109 10.371,-1.41 14.243,-2.847 3.859,-1.434 8.507,-3.012 10.168,-3.461 2.519,-0.66 2.441,-1.16 -0.411,-2.789 -4.468,-2.551 -4.789,-7.121 -0.609,-8.75 3.059,-1.192 3.059,-1.481 0.109,-4.532 -1.66,-1.71 -4.148,-5.089 -5.257,-7.121 -2.543,-4.679 -9.782,-4.929 -11.512,-0.41 z m 145.859,9.77 c 0,4.472 0.813,5.09 6.723,5.09 6.297,0 11.59,-2.969 11.59,-6.508 0,-0.77 -3.961,-1.801 -8.641,-2.242 -4.68,-0.438 -8.883,-0.957 -9.16,-1.118 -0.281,-0.171 -0.512,1.93 -0.512,4.778 z m -175.59,-1.641 c -2.031,0.57 -3.371,2.57 -3,4.492 1.231,6.45 30.063,5.078 30.063,-1.429 0,-0.871 -2.641,-2.672 -5.692,-3.871 -5.082,-2 -12.41,-1.719 -21.371,0.808 z m 160.332,11.641 c -6.171,4.59 -1.421,7.582 9.161,5.761 13.75,-2.371 12.609,-7.05 -2.043,-8.351 -1.707,-0.149 -5.079,1.07 -7.118,2.59 z m -18.113,10.351 c -1.789,1.789 -3.25,5.899 -3.25,9.149 v 5.902 l 7.223,-4.883 c 4.07,-2.75 8.289,-5.238 9.668,-5.699 1.859,-0.617 1.761,-1.629 -0.43,-4.269 -3.551,-4.27 -9.051,-4.36 -13.211,-0.2 z m -66.398,1.008 c -1.192,2.242 -3.352,4.07 -4.809,4.07 -1.391,0 -4.293,1.832 -6.121,3.872 -4.371,4.851 -2.02,6.582 10.191,7.492 7.528,0.558 9.34,-0.09 12.95,-4.641 5.339,-6.723 5.179,-10.531 -0.539,-12.801 -7.122,-2.832 -9.293,-2.461 -11.672,2.008 z m 24.492,4.481 c 0,0.98 -1.422,3.25 -3.051,4.882 -4.699,4.7 -3.66,6.379 4.469,7.297 5.551,0.621 9.57,-0.5 15.262,-4.238 11.109,-7.301 9.968,-9.77 -4.473,-9.77 -6.719,0 -12.207,0.821 -12.207,1.829"
         style="fill:#d8d6d4;fill-opacity:1;fill-rule:nonzero;stroke:none"
         id="path14" /></g></g></svg>
